<svg width="53" height="53" viewBox="0 0 53 53" fill="none" xmlns="http://www.w3.org/2000/svg">
<rect width="52.4666" height="52.4802" rx="10" fill="#0161BC"/>
<path d="M32.041 36.0256C32.7939 36.0256 33.214 36.8947 32.7461 37.4846L30.8506 39.8752C28.7843 43.3485 23.7548 43.3485 21.6885 39.8752L19.792 37.4846C19.3242 36.8948 19.7444 36.0259 20.4971 36.0256H32.041ZM20.1611 18.7004C21.8477 18.7004 23.2158 21.2864 23.2158 24.4758C23.2157 27.665 21.8477 30.2502 20.1611 30.2502C18.4748 30.2498 17.1076 27.6647 17.1074 24.4758C17.1074 21.2867 18.4747 18.7009 20.1611 18.7004ZM30.8906 25.2326C32.9738 24.0702 35.2945 23.8842 37.3115 24.7317L38.8887 25.3928C39.3504 25.587 39.5441 26.1953 39.3223 26.7512C39.1 27.3073 38.5451 27.6024 38.083 27.4084L36.5059 26.7453C34.9472 26.0906 33.1547 26.235 31.5449 27.133L31.2246 27.3225C30.7552 27.6184 30.2073 27.4459 30.001 26.9367C29.8077 26.4593 29.9833 25.8559 30.3926 25.5383L30.4775 25.4787L30.8906 25.2326ZM31.8857 17.8645C34.902 15.3289 38.8453 15.5594 41.1016 18.4035L42.2559 19.8586C42.5814 20.269 42.5232 20.9447 42.127 21.3674C41.7554 21.7636 41.2176 21.7979 40.8838 21.4621L40.8203 21.3899L39.666 19.9348C38.0016 17.8367 35.0933 17.6669 32.8682 19.5373C32.4331 19.9028 31.8611 19.8241 31.5899 19.3625C31.3187 18.9008 31.4508 18.2303 31.8857 17.8645ZM18.2471 10.0783C18.7561 9.86443 19.3426 10.1036 19.5566 10.6125C19.7706 11.1216 19.5314 11.708 19.0225 11.9221L17.7363 12.4621C15.8188 13.268 14.239 14.7132 13.2666 16.552L11.8838 19.1672L11.832 19.2561C11.551 19.6778 10.9899 19.8262 10.5322 19.5842C10.0443 19.3259 9.85811 18.7207 10.1162 18.2326L11.499 15.6174C12.6875 13.37 14.6182 11.6033 16.9619 10.6184L18.2471 10.0783Z" fill="#FAFAFA"/>
</svg>
